<?xml version="1.0" standalone="no"?>
<!DOCTYPE svg PUBLIC "-//W3C//DTD SVG 20010904//EN"
 "http://www.w3.org/TR/2001/REC-SVG-20010904/DTD/svg10.dtd">
<svg version="1.0" xmlns="http://www.w3.org/2000/svg"
 width="300.000000pt" height="300.000000pt" viewBox="0 0 300.000000 300.000000"
 preserveAspectRatio="xMidYMid meet">
<metadata>
Created by potrace 1.11, written by Peter Selinger 2001-2013
</metadata>
<g transform="translate(0.000000,300.000000) scale(0.100000,-0.100000)"
fill="#000000" stroke="none">
<path d="M2195 2714 c-86 -52 -130 -88 -217 -176 -114 -116 -188 -216 -373
-503 -92 -143 -170 -262 -172 -265 -6 -6 -4 -8 -173 228 -242 341 -393 504
-521 562 -58 26 -69 25 -103 -6 -27 -26 -28 -30 -23 -88 16 -162 82 -323 215
-520 306 -454 337 -505 328 -549 -3 -16 -76 -170 -162 -341 -164 -328 -208
-436 -222 -553 -13 -114 -1 -227 26 -237 68 -25 69 -25 108 7 81 67 214 269
371 565 65 123 123 205 155 219 49 22 174 -79 458 -366 185 -187 247 -243 328
-296 39 -26 45 -27 82 -16 47 14 67 51 79 146 20 172 -75 329 -345 570 -211
188 -305 300 -318 377 -6 36 38 140 92 220 27 40 118 161 201 268 180 231 219
288 271 395 47 99 70 190 70 281 0 68 -1 69 -35 92 -19 12 -40 22 -47 22 -7 0
-40 -16 -73 -36z"/>
</g>
</svg>
